<svg xmlns="http://www.w3.org/2000/svg" xmlns:xlink="http://www.w3.org/1999/xlink" viewBox="0 0 538.21 166.32"><defs><style>.cls-1{fill:url(#ButtonGradient);}.cls-2{fill:url(#ButtonGradient-2);}.cls-3{fill:url(#ButtonGradient-3);}.cls-4{fill:url(#ButtonGradient-4);}.cls-5{fill:url(#ButtonGradient-5);}.cls-6{fill:url(#ButtonGradient-6);}.cls-7{fill:url(#ButtonGradient-7);}.cls-8{fill:url(#ButtonGradient-8);}.cls-9{fill:url(#ButtonGradient-9);}.cls-10{fill:url(#ButtonGradient-10);}.cls-11{fill:url(#ButtonGradient-11);}.cls-12{fill:url(#ButtonGradient-12);}.cls-13{fill:url(#ButtonGradient-13);}.cls-14{fill:url(#radial-gradient);}.cls-15{fill:url(#radial-gradient-2);}.cls-16{fill:url(#radial-gradient-3);}.cls-17{fill:url(#radial-gradient-4);}.cls-18{fill:url(#radial-gradient-5);}.cls-19{fill:url(#radial-gradient-6);}.cls-20{fill:url(#radial-gradient-7);}.cls-21{fill:url(#radial-gradient-8);}.cls-22{fill:url(#radial-gradient-9);}.cls-23{fill:url(#radial-gradient-10);}.cls-24{fill:url(#radial-gradient-11);}.cls-25{fill:url(#radial-gradient-12);}.cls-26{fill:url(#radial-gradient-13);}.cls-27{fill:url(#ButtonGradient-14);}.cls-28{fill:url(#ButtonGradient-15);}.cls-29{fill:url(#ButtonGradient-16);}.cls-30{fill:url(#ButtonGradient-17);}.cls-31{fill:url(#ButtonGradient-18);}.cls-32{fill:url(#ButtonGradient-19);}.cls-33{fill:url(#ButtonGradient-20);}.cls-34{fill:url(#ButtonGradient-21);}.cls-35{fill:url(#ButtonGradient-22);}.cls-36{fill:url(#ButtonGradient-23);}.cls-37{fill:url(#linear-gradient);}.cls-38{fill:url(#ButtonGradient-24);}.cls-39{fill:url(#linear-gradient-2);}.cls-40{fill:url(#linear-gradient-3);}.cls-41{fill:url(#linear-gradient-4);}.cls-42{fill:url(#linear-gradient-5);}.cls-43{fill:url(#linear-gradient-6);}.cls-44{fill:url(#linear-gradient-7);}.cls-45{fill:url(#linear-gradient-8);}.cls-46{fill:url(#linear-gradient-9);}.cls-47{fill:url(#linear-gradient-10);}.cls-48{fill:url(#linear-gradient-11);}.cls-49{fill:url(#linear-gradient-12);}.cls-50{fill:url(#ButtonGradient-25);}.cls-51{fill:url(#ButtonGradient-26);}.cls-52{fill:url(#ButtonGradient-27);}.cls-53{fill:url(#ButtonGradient-28);}.cls-54{fill:url(#ButtonGradient-29);}.cls-55{fill:url(#ButtonGradient-30);}.cls-56{fill:url(#ButtonGradient-31);}.cls-57{fill:url(#ButtonGradient-32);}.cls-58{fill:url(#ButtonGradient-33);}.cls-59{fill:url(#ButtonGradient-34);}.cls-60{fill:url(#ButtonGradient-35);}.cls-61{fill:url(#linear-gradient-13);}.cls-62{fill:url(#linear-gradient-14);}</style><linearGradient id="ButtonGradient" x1="211.9" y1="-248.85" x2="221.64" y2="-248.85" gradientTransform="translate(363.33 350.81) rotate(-24.16)" gradientUnits="userSpaceOnUse"><stop offset="0" stop-color="#ff9595"/><stop offset="1" stop-color="#ffc1c1"/></linearGradient><linearGradient id="ButtonGradient-2" x1="223.74" y1="-246.08" x2="236.35" y2="-246.08" xlink:href="#ButtonGradient"/><linearGradient id="ButtonGradient-3" x1="222.86" y1="-249.7" x2="235.91" y2="-249.7" xlink:href="#ButtonGradient"/><linearGradient id="ButtonGradient-4" x1="218.46" y1="-256.08" x2="225.58" y2="-256.08" xlink:href="#ButtonGradient"/><linearGradient id="ButtonGradient-5" x1="214.39" y1="-253.69" x2="221.72" y2="-253.69" xlink:href="#ButtonGradient"/><linearGradient id="ButtonGradient-6" x1="221.98" y1="-254.26" x2="233.51" y2="-254.26" xlink:href="#ButtonGradient"/><linearGradient id="ButtonGradient-7" x1="214.46" y1="-234.13" x2="225.13" y2="-234.13" xlink:href="#ButtonGradient"/><linearGradient id="ButtonGradient-8" x1="199.69" y1="-214.2" x2="216.43" y2="-214.2" xlink:href="#ButtonGradient"/><linearGradient id="ButtonGradient-9" x1="196.67" y1="-209.57" x2="236.2" y2="-209.57" xlink:href="#ButtonGradient"/><linearGradient id="ButtonGradient-10" x1="197.91" y1="-212.65" x2="207.44" y2="-212.65" xlink:href="#ButtonGradient"/><linearGradient id="ButtonGradient-11" x1="190.88" y1="-207.47" x2="227.94" y2="-207.47" xlink:href="#ButtonGradient"/><linearGradient id="ButtonGradient-12" x1="187.7" y1="-205.55" x2="201.53" y2="-205.55" xlink:href="#ButtonGradient"/><linearGradient id="ButtonGradient-13" x1="194.58" y1="-195.31" x2="227.75" y2="-195.31" xlink:href="#ButtonGradient"/><radialGradient id="radial-gradient" cx="1400.9" cy="-149.69" r="5.01" gradientTransform="matrix(-0.99, 0.12, 0.12, 0.99, 1568.07, 19.08)" xlink:href="#ButtonGradient"/><radialGradient id="radial-gradient-2" cx="1414.18" cy="-146.91" r="5.09" gradientTransform="matrix(-0.99, 0.12, 0.12, 0.99, 1568.07, 19.08)" xlink:href="#ButtonGradient"/><radialGradient id="radial-gradient-3" cx="1413.52" cy="-150.54" r="6.5" gradientTransform="matrix(-0.99, 0.12, 0.12, 0.99, 1568.07, 19.08)" xlink:href="#ButtonGradient"/><radialGradient id="radial-gradient-4" cx="1406.15" cy="-156.91" r="9.23" gradientTransform="matrix(-0.99, 0.12, 0.12, 0.99, 1568.07, 19.08)" xlink:href="#ButtonGradient"/><radialGradient id="radial-gradient-5" cx="1402.19" cy="-154.53" r="7.16" gradientTransform="matrix(-0.99, 0.12, 0.12, 0.99, 1568.07, 19.08)" xlink:href="#ButtonGradient"/><radialGradient id="radial-gradient-6" cx="1411.88" cy="-155.09" r="8.47" gradientTransform="matrix(-0.99, 0.12, 0.12, 0.99, 1568.07, 19.08)" xlink:href="#ButtonGradient"/><radialGradient id="radial-gradient-7" cx="1403.93" cy="-134.97" r="9.63" gradientTransform="matrix(-0.99, 0.12, 0.12, 0.99, 1568.07, 19.08)" xlink:href="#ButtonGradient"/><radialGradient id="radial-gradient-8" cx="1392.19" cy="-115.03" r="15.13" gradientTransform="matrix(-0.99, 0.12, 0.12, 0.99, 1568.07, 19.08)" xlink:href="#ButtonGradient"/><radialGradient id="radial-gradient-9" cx="1400.56" cy="-110.41" r="16.36" gradientTransform="matrix(-0.99, 0.12, 0.12, 0.99, 1568.07, 19.08)" xlink:href="#ButtonGradient"/><radialGradient id="radial-gradient-10" cx="1386.81" cy="-113.48" r="16.84" gradientTransform="matrix(-0.99, 0.12, 0.12, 0.99, 1568.07, 19.08)" xlink:href="#ButtonGradient"/><radialGradient id="radial-gradient-11" cx="1393.54" cy="-108.31" r="19.97" gradientTransform="matrix(-0.99, 0.12, 0.12, 0.99, 1568.07, 19.08)" xlink:href="#ButtonGradient"/><radialGradient id="radial-gradient-12" cx="1378.75" cy="-106.39" r="14.17" gradientTransform="matrix(-0.99, 0.12, 0.12, 0.99, 1568.07, 19.08)" xlink:href="#ButtonGradient"/><radialGradient id="radial-gradient-13" cx="1395.3" cy="-96.14" r="14.09" gradientTransform="matrix(-0.99, 0.12, 0.12, 0.99, 1568.07, 19.08)" xlink:href="#ButtonGradient"/><linearGradient id="ButtonGradient-14" x1="389.72" y1="171.71" x2="329.84" y2="210.69" gradientTransform="translate(-133.17 -196.26) rotate(12.69)" xlink:href="#ButtonGradient"/><linearGradient id="ButtonGradient-15" x1="95.24" y1="-30.95" x2="21.07" y2="17.33" gradientTransform="translate(68.95 69.99) rotate(-5.8)" xlink:href="#ButtonGradient"/><linearGradient id="ButtonGradient-16" x1="206.77" y1="78.41" x2="41.56" y2="185.95" gradientTransform="translate(-21.2 -31.2) rotate(2.34)" xlink:href="#ButtonGradient"/><linearGradient id="ButtonGradient-17" x1="1921.9" y1="-459.34" x2="1986.14" y2="-459.34" gradientTransform="matrix(-0.82, 0.58, 0.58, 0.82, 2184.19, -654.77)" xlink:href="#ButtonGradient"/><linearGradient id="ButtonGradient-18" x1="1866.3" y1="-443.06" x2="1968.47" y2="-443.06" gradientTransform="matrix(-0.82, 0.58, 0.58, 0.82, 2184.19, -654.77)" xlink:href="#ButtonGradient"/><linearGradient id="ButtonGradient-19" x1="1839.94" y1="-420.01" x2="1976.91" y2="-420.01" gradientTransform="matrix(-0.82, 0.58, 0.58, 0.82, 2184.19, -654.77)" xlink:href="#ButtonGradient"/><linearGradient id="ButtonGradient-20" x1="249.77" y1="114.99" x2="249.77" y2="32.84" gradientTransform="matrix(1, 0, 0, 1, 0, 0)" xlink:href="#ButtonGradient"/><linearGradient id="ButtonGradient-21" x1="208.1" y1="116.67" x2="208.1" y2="27.27" gradientTransform="matrix(1, 0, 0, 1, 0, 0)" xlink:href="#ButtonGradient"/><linearGradient id="ButtonGradient-22" x1="265.46" y1="119.06" x2="265.46" y2="35" gradientTransform="matrix(1, 0, 0, 1, 0, 0)" xlink:href="#ButtonGradient"/><linearGradient id="ButtonGradient-23" x1="190.06" y1="115.64" x2="190.06" y2="36.19" gradientTransform="matrix(1, 0, 0, 1, 0, 0)" xlink:href="#ButtonGradient"/><linearGradient id="linear-gradient" x1="240.59" y1="117.6" x2="240.59" y2="0" gradientTransform="matrix(1, 0, 0, 1, 0, 0)" xlink:href="#ButtonGradient"/><linearGradient id="ButtonGradient-24" x1="221.79" y1="110.99" x2="221.79" y2="4.48" gradientTransform="matrix(1, 0, 0, 1, 0, 0)" xlink:href="#ButtonGradient"/><linearGradient id="linear-gradient-2" x1="281.41" y1="92.67" x2="312.59" y2="92.67" gradientTransform="matrix(1, 0, 0, 1, 0, 0)" xlink:href="#ButtonGradient"/><linearGradient id="linear-gradient-3" x1="264.8" y1="66.73" x2="325.99" y2="66.73" gradientTransform="matrix(1, 0, 0, 1, 0, 0)" xlink:href="#ButtonGradient"/><linearGradient id="linear-gradient-4" x1="292.56" y1="74.23" x2="338.84" y2="74.23" gradientTransform="matrix(1, 0, 0, 1, 0, 0)" xlink:href="#ButtonGradient"/><linearGradient id="linear-gradient-5" x1="305.77" y1="60.25" x2="346.04" y2="60.25" gradientTransform="matrix(1, 0, 0, 1, 0, 0)" xlink:href="#ButtonGradient"/><linearGradient id="linear-gradient-6" x1="337.55" y1="61.28" x2="361.65" y2="61.28" gradientTransform="matrix(1, 0, 0, 1, 0, 0)" xlink:href="#ButtonGradient"/><linearGradient id="linear-gradient-7" x1="351.63" y1="68.79" x2="392.13" y2="68.79" gradientTransform="matrix(1, 0, 0, 1, 0, 0)" xlink:href="#ButtonGradient"/><linearGradient id="linear-gradient-8" x1="362.63" y1="65.15" x2="436.71" y2="65.15" gradientTransform="matrix(1, 0, 0, 1, 0, 0)" xlink:href="#ButtonGradient"/><linearGradient id="linear-gradient-9" x1="371.35" y1="85.25" x2="416.07" y2="85.25" gradientTransform="matrix(1, 0, 0, 1, 0, 0)" xlink:href="#ButtonGradient"/><linearGradient id="linear-gradient-10" x1="391.06" y1="77.72" x2="436.48" y2="77.72" gradientTransform="matrix(1, 0, 0, 1, 0, 0)" xlink:href="#ButtonGradient"/><linearGradient id="linear-gradient-11" x1="402.93" y1="91.33" x2="452.24" y2="91.33" gradientTransform="matrix(1, 0, 0, 1, 0, 0)" xlink:href="#ButtonGradient"/><linearGradient id="linear-gradient-12" x1="331.46" y1="87.8" x2="350.17" y2="87.8" gradientTransform="matrix(1, 0, 0, 1, 0, 0)" xlink:href="#ButtonGradient"/><linearGradient id="ButtonGradient-25" x1="414.04" y1="86.62" x2="432.33" y2="86.62" gradientTransform="matrix(1, 0, 0, 1, 0, 0)" xlink:href="#ButtonGradient"/><linearGradient id="ButtonGradient-26" x1="404.29" y1="71.4" x2="440.2" y2="71.4" gradientTransform="matrix(1, 0, 0, 1, 0, 0)" xlink:href="#ButtonGradient"/><linearGradient id="ButtonGradient-27" x1="420.59" y1="75.8" x2="447.74" y2="75.8" gradientTransform="matrix(1, 0, 0, 1, 0, 0)" xlink:href="#ButtonGradient"/><linearGradient id="ButtonGradient-28" x1="428.34" y1="67.6" x2="451.96" y2="67.6" gradientTransform="matrix(1, 0, 0, 1, 0, 0)" xlink:href="#ButtonGradient"/><linearGradient id="ButtonGradient-29" x1="446.98" y1="68.21" x2="461.12" y2="68.21" gradientTransform="matrix(1, 0, 0, 1, 0, 0)" xlink:href="#ButtonGradient"/><linearGradient id="ButtonGradient-30" x1="455.24" y1="72.61" x2="479" y2="72.61" gradientTransform="matrix(1, 0, 0, 1, 0, 0)" xlink:href="#ButtonGradient"/><linearGradient id="ButtonGradient-31" x1="461.7" y1="70.47" x2="505.16" y2="70.47" gradientTransform="matrix(1, 0, 0, 1, 0, 0)" xlink:href="#ButtonGradient"/><linearGradient id="ButtonGradient-32" x1="466.81" y1="82.27" x2="493.05" y2="82.27" gradientTransform="matrix(1, 0, 0, 1, 0, 0)" xlink:href="#ButtonGradient"/><linearGradient id="ButtonGradient-33" x1="478.38" y1="77.85" x2="505.03" y2="77.85" gradientTransform="matrix(1, 0, 0, 1, 0, 0)" xlink:href="#ButtonGradient"/><linearGradient id="ButtonGradient-34" x1="485.34" y1="85.84" x2="514.27" y2="85.84" gradientTransform="matrix(1, 0, 0, 1, 0, 0)" xlink:href="#ButtonGradient"/><linearGradient id="ButtonGradient-35" x1="443.41" y1="83.76" x2="454.38" y2="83.76" gradientTransform="matrix(1, 0, 0, 1, 0, 0)" xlink:href="#ButtonGradient"/><linearGradient id="linear-gradient-13" x1="383.3" y1="34.62" x2="435.04" y2="34.62" gradientTransform="translate(100.79 142.54) rotate(-8.37)" xlink:href="#ButtonGradient"/><linearGradient id="linear-gradient-14" x1="322.69" y1="37.36" x2="424.24" y2="37.36" gradientTransform="translate(100.79 142.54) rotate(-8.37)" xlink:href="#ButtonGradient"/></defs><title>Artboard 9</title><g id="Layer_4" data-name="Layer 4"><path class="cls-1" d="M464.88,38.16c-1,0-2.05.3-3.09.38a8.61,8.61,0,0,1-9-6.24,1.81,1.81,0,0,1,1.32-.11,21.5,21.5,0,0,1,5,1.83l6.4,3"/><path class="cls-2" d="M468.24,37.86a22.91,22.91,0,0,0,6.1-4.55,13.32,13.32,0,0,0,1.21-1.59,7.19,7.19,0,0,0,1.29-5.33A15,15,0,0,0,471.44,31c-.53.74-1,1.52-1.44,2.3l-2.19,3.75"/><path class="cls-3" d="M467.22,36.48a32.32,32.32,0,0,0,3.62-3,12.4,12.4,0,0,0,2.52-3.16,15.33,15.33,0,0,0,1.16-3.61,10,10,0,0,0,.35-2.43,9.18,9.18,0,0,0-1.14-3.74c-2.43,2-3.52,5.11-4.17,8.16s-1,6.22-2.44,9"/><path class="cls-4" d="M464.22,36.95a15.07,15.07,0,0,1-1.37-1.38c-4.9-5.49-7.38-12.77-8.45-20a27.32,27.32,0,0,0,2.94,1.66,17.46,17.46,0,0,1,7.56,8.93A22.71,22.71,0,0,1,466,37.86"/><path class="cls-5" d="M465.32,36.44a10,10,0,0,1-7-2.23A13.1,13.1,0,0,1,457.1,33a26.38,26.38,0,0,1-5.64-10.08.83.83,0,0,1,.68,0A13.41,13.41,0,0,1,456,25.1a22.26,22.26,0,0,1,3.63,3.08,22.26,22.26,0,0,1,2.62,4l2.91,5.24"/><path class="cls-6" d="M465.47,36.13l-.94-2.37a14.92,14.92,0,0,1-1-3.35,13.6,13.6,0,0,1,.55-5.18A75,75,0,0,1,468,13.68c1.57,3.33,3.17,6.74,3.51,10.41a20.84,20.84,0,0,1-3.36,12.56"/><path class="cls-7" d="M467.9,59.93a75.41,75.41,0,0,1-.39-9.71,20.59,20.59,0,0,0,0-2.68,16.33,16.33,0,0,0-.26-1.65l-1.15-6a3.35,3.35,0,0,1-2.75-3.09,1.63,1.63,0,0,1,.21-.95,2.07,2.07,0,0,1,.75-.61,6.15,6.15,0,0,1,1.7-.73,2.48,2.48,0,0,1,1.79.22A2.88,2.88,0,0,1,469,36.46a2.07,2.07,0,0,1-.3,2c-.28.27-.69.42-.84.77a1.39,1.39,0,0,0,.06.95,36,36,0,0,1,1.43,12.54,28.85,28.85,0,0,0-.14,4.33,15.71,15.71,0,0,1,.23,3.25"/><path class="cls-8" d="M465.92,91.61a5.69,5.69,0,0,0,.17-2.38c-.5-7.88,1-15.93-.84-23.61-.91-3.82-2.61-7.41-3.6-11.2a6.4,6.4,0,0,1-.27-2.58,2.25,2.25,0,0,1,3.89-1.44,6.36,6.36,0,0,1,1.47,2.14,16.71,16.71,0,0,1,1.77,5.9,26.7,26.7,0,0,1-.88,7.25,86.15,86.15,0,0,0-1.67,17.91"/><path class="cls-9" d="M461.92,90.07a82.54,82.54,0,0,1,7.87-16.82c.78-1.26,1.59-2.5,2.4-3.74l3.49-5.33c2.22-3.39,4.48-6.81,7.49-9.52a7.13,7.13,0,0,1,2.27-1.5,3,3,0,0,1,2.63.19A4.62,4.62,0,0,1,489.41,55a4.48,4.48,0,0,1,.82,2.21,4.48,4.48,0,0,1-.83,2.2l-5.67,9.5A25.08,25.08,0,0,1,482,71.5a25.07,25.07,0,0,1-2,2.14l-6.88,7c-1.46,1.48-2.92,3-4.4,4.41"/><path class="cls-10" d="M466.46,97.06q-4.06-8.72-7.74-17.61a60.34,60.34,0,0,1-2.33-6.31c-.31-1.08-.57-2.18-.89-3.26-1.09-3.73-2.88-7.21-4.27-10.83a8.7,8.7,0,0,1-.78-3.93,3,3,0,0,1,5.06-2.2,9.09,9.09,0,0,1,1.84,2.29A56.59,56.59,0,0,1,464,69.65a85.83,85.83,0,0,1,2.36,14.1"/><path class="cls-11" d="M461.3,102.84c-1.81-10.58-3.59-21.54-.92-31.94a38.73,38.73,0,0,1,11.3-18.83c1.25-1.15,2.83-2.28,4.5-2a5,5,0,0,1,2.9,2.24,6.48,6.48,0,0,1,1.31,3.11,8.16,8.16,0,0,1-.48,3c-3.72,12.63-8.73,25-16.29,35.79"/><path class="cls-12" d="M457,101c.89-1,.88-2.43.76-3.73a45.08,45.08,0,0,0-8.25-22.14,16,16,0,0,1-2.16-3.5,4.39,4.39,0,0,1,.22-4,4,4,0,0,1,3.81-1.53A7.73,7.73,0,0,1,455.22,68c3.49,2.86,5.46,7.14,7.12,11.34a41.58,41.58,0,0,1,3.06,11,17.22,17.22,0,0,1-2.27,11"/><path class="cls-13" d="M464.08,100c.09-5.68.81-11.58,3.82-16.4A27.11,27.11,0,0,1,470,80.72c3.64-4.43,8.27-8.25,13.76-9.88a4.21,4.21,0,0,1,2.49-.17c1.24.41,1.89,1.74,2.34,3a2.5,2.5,0,0,1,.17.63,2.26,2.26,0,0,1-.15.91,13.16,13.16,0,0,1-3.89,5.4c-1.67,1.5-3.52,2.79-5.16,4.32a48.16,48.16,0,0,0-3.32,3.52l-3.71,4.21a23.86,23.86,0,0,0-2.6,3.33c-.66,1.09-1.15,2.29-1.76,3.41a16.9,16.9,0,0,1-2.67,3.65"/><path class="cls-14" d="M156.09,42c.9-.51,1.92-.8,2.85-1.26a8.61,8.61,0,0,0,4.5-10,1.81,1.81,0,0,0-1.19.58,21.5,21.5,0,0,0-3.32,4.13q-2,2.93-3.94,5.87"/><path class="cls-15" d="M153.05,43.49a22.91,22.91,0,0,1-7.57-.76,13.32,13.32,0,0,1-1.85-.75,7.19,7.19,0,0,1-3.85-3.91,15,15,0,0,1,7,1.2c.83.36,1.63.8,2.42,1.23L153,42.6"/><path class="cls-16" d="M153.22,41.78a32.32,32.32,0,0,1-4.65-.72,12.4,12.4,0,0,1-3.78-1.41,15.33,15.33,0,0,1-2.85-2.5,10,10,0,0,1-1.55-1.9,9.18,9.18,0,0,1-.95-3.8c3.09.43,5.65,2.57,7.77,4.85s4.07,4.81,6.71,6.46"/><path class="cls-17" d="M156,40.64a15.07,15.07,0,0,0,.47-1.89c1.38-7.23-.24-14.74-3.06-21.54a27.32,27.32,0,0,1-1.66,2.93,17.46,17.46,0,0,0-1.89,11.54A22.71,22.71,0,0,0,155,42.33"/><path class="cls-18" d="M154.83,40.77a10,10,0,0,0,4.84-5.51,13.1,13.1,0,0,0,.43-1.7A26.38,26.38,0,0,0,159.75,22a.83.83,0,0,0-.58.35A13.41,13.41,0,0,0,157,26.23a22.26,22.26,0,0,0-1.52,4.51,22.26,22.26,0,0,0-.18,4.79l.2,6"/><path class="cls-19" d="M154.55,40.58l-.42-2.52a14.92,14.92,0,0,0-.84-3.4,13.6,13.6,0,0,0-3.14-4.16,75,75,0,0,0-9.32-7.89c.36,3.66.75,7.41,2.35,10.73a20.84,20.84,0,0,0,9.35,9"/><path class="cls-20" d="M164.71,62.24A75.41,75.41,0,0,0,160,53.71a20.59,20.59,0,0,1-1.41-2.28,16.33,16.33,0,0,1-.63-1.54l-2.12-5.76a3.35,3.35,0,0,0,.77-4.07,1.63,1.63,0,0,0-.67-.71,2.07,2.07,0,0,0-1-.14,6.15,6.15,0,0,0-1.83.25,2.48,2.48,0,0,0-1.42,1.11,2.88,2.88,0,0,0-.1,2.11,2.07,2.07,0,0,0,1.31,1.6c.37.09.8,0,1.12.22a1.39,1.39,0,0,1,.44.84,36,36,0,0,0,5.23,11.49,28.85,28.85,0,0,1,2.35,3.64,15.71,15.71,0,0,0,1.48,2.91"/><path class="cls-21" d="M182.7,88.39a5.69,5.69,0,0,1-1.37-2c-3.62-7-9-13.15-11.42-20.67-1.19-3.74-1.57-7.69-2.68-11.46a6.4,6.4,0,0,0-1.09-2.35,2.25,2.25,0,0,0-4.07.77,6.36,6.36,0,0,0-.16,2.59,16.71,16.71,0,0,0,1.52,6A26.7,26.7,0,0,0,167.91,67a86.15,86.15,0,0,1,10.65,14.49"/><path class="cls-22" d="M185.34,85a82.54,82.54,0,0,0-15.4-10.37c-1.32-.68-2.65-1.33-4-2l-5.74-2.77c-3.65-1.76-7.35-3.54-11.32-4.3a7.13,7.13,0,0,0-2.72-.11A3,3,0,0,0,144,67a4.62,4.62,0,0,0-.31,2.07,4.48,4.48,0,0,0,.43,2.32A4.48,4.48,0,0,0,146,72.83l9.76,5.23a18.8,18.8,0,0,0,5.59,2.19l9.48,2.44c2,.52,4,1,6,1.51"/><path class="cls-23" d="M185,93.33q-1-9.57-2.42-19.09a60.34,60.34,0,0,0-1.25-6.61c-.29-1.09-.63-2.16-.92-3.25-1-3.76-1.24-7.66-1.92-11.49a8.7,8.7,0,0,0-1.35-3.77,3,3,0,0,0-5.47.72,9.09,9.09,0,0,0-.39,2.91A56.59,56.59,0,0,0,173,68.59a85.83,85.83,0,0,0,5.23,13.31"/><path class="cls-24" d="M192.44,95.63c-3.9-10-8-20.32-15.64-27.86a38.73,38.73,0,0,0-19.38-10.34c-1.66-.34-3.6-.5-4.86.63a5,5,0,0,0-1.33,3.42,6.48,6.48,0,0,0,.48,3.34,8.16,8.16,0,0,0,1.93,2.29C163.32,76,174,84.06,186,89.41"/><path class="cls-25" d="M195.19,91.85c-1.26-.37-2-1.63-2.58-2.81a45.08,45.08,0,0,1-4.32-23.23,16,16,0,0,0,.05-4.12,4.39,4.39,0,0,0-2.23-3.29,4,4,0,0,0-4.06.65,7.73,7.73,0,0,0-2.34,3.57c-1.52,4.25-1,8.93-.27,13.39a41.58,41.58,0,0,0,3,11,17.22,17.22,0,0,0,7.61,8.28"/><path class="cls-26" d="M188.59,94.63c-3-4.83-6.66-9.51-11.71-12.1a27.11,27.11,0,0,0-3.27-1.38c-5.4-1.93-11.33-2.82-16.88-1.39a4.21,4.21,0,0,0-2.22,1.14c-.85,1-.72,2.47-.48,3.75a2.5,2.5,0,0,0,.18.62,2.26,2.26,0,0,0,.6.7,13.16,13.16,0,0,0,6.12,2.63c2.2.43,4.45.58,6.65,1A48.16,48.16,0,0,1,172.23,91l5.35,1.7a23.86,23.86,0,0,1,3.94,1.52c1.13.6,2.16,1.37,3.26,2A16.9,16.9,0,0,0,188.94,98"/><path class="cls-27" d="M171.55,104.5,153.24,89.41a104.08,104.08,0,0,1-8.9-7.93c-2.56-2.65-4.93-5.82-5.23-9.49a16.67,16.67,0,0,1,.45-4.66,65.15,65.15,0,0,1,2.15-7.92c.39-1.16,1-2.46,2.15-2.8a4,4,0,0,1,2,.13l7.66,1.87a28.74,28.74,0,0,0-7.65-5.15,48.6,48.6,0,0,1,4.41-19A122.89,122.89,0,0,1,164,37.67c-1.86-1.49-2.38-4.09-2.43-6.47A25.57,25.57,0,0,1,164.41,19a2.76,2.76,0,0,1,.95-1.19c1-.58,2.2.14,3.1.83l9,6.84a21,21,0,0,1,4.78,4.5c2,2.86,2.4,6.48,2.76,9.94,3.87-.48,7.82-.95,11.63-.13s7.51,3.17,8.88,6.82c1.2,3.19.45,6.74-.31,10.07l-2.35,10.28c2.54.62,5.25,1.36,6.93,3.36s1.91,4.5,2,7c.4,8.41-1,17.25-6.08,24-3.5,4.69-8.65,8.28-10.79,13.73a7.71,7.71,0,0,1-1.61,3.05c-2,1.83-5.18.32-7.41-1.23l-18.74-13"/><path class="cls-28" d="M66.23,53.51c-1.13-1.56-1.81-3.4-2.92-5s-2.58-2.78-3.69-4.32-1.8-3.59-1-5.33A63.17,63.17,0,0,1,80.9,33.21a8.59,8.59,0,0,1,1.72,3,3.86,3.86,0,0,1,1.36-4A11.33,11.33,0,0,1,88,30.25c3.83-1.23,7.75-2.47,11.77-2.33s8.22,1.94,10.14,5.47a1.66,1.66,0,0,0,.65.79c.67.31,1.32-.41,1.76-1,2.48-3.34,6.75-5,10.91-5.16s8.25,1,12.18,2.36a4.92,4.92,0,0,1,2.79,1.79c.41.68.47,1.52.87,2.21a4.24,4.24,0,0,0,2,1.56c2.68,1.23,5.69,1.48,8.61,1.88s5.95,1,8.28,2.8,3.76,5.11,2.54,7.79c5.22,1,10.82.6,15.62,2.9,5,2.41,8.32,7.53,9.84,12.9s1.49,11,1.44,16.6c-5.48.3-10.84,2-16.32,1.9A48.37,48.37,0,0,1,160.85,81l-27.76-6.77a8.5,8.5,0,0,0-2.54-.35,9,9,0,0,0-2.77.81A71.7,71.7,0,0,1,118,77.82c-3.2.79-6.58,1.36-9.77.54s-6.14-3.36-6.5-6.64a58,58,0,0,1-14.22,2.51A4.36,4.36,0,0,1,85.66,74a4.13,4.13,0,0,1-1.74-1.67,22.41,22.41,0,0,1-3.32-8c-.3-1.52.26-7-1.17-7.5-.57-.19-2.61.78-3.34.85a11.52,11.52,0,0,1-3.83-.26A10.42,10.42,0,0,1,66.23,53.51Z"/><path class="cls-29" d="M190,102.91,183,116.24a11.84,11.84,0,0,1-3.07,4.17,11,11,0,0,1-4.31,1.65c-7.43,1.61-15.22,2-22.62.3s-14.39-5.84-18.81-12c1.51,2.59-.11,6.11-2.66,7.69s-5.71,1.75-8.71,1.87l-19.32.77c-4,.16-9.22-.6-10-4.52.27,3.13-2,6-4.85,7.41s-6,1.62-9.17,1.82L57,126.78a16.88,16.88,0,0,1-6.42-.42c-2-.68-3.91-2.39-4.11-4.54-1.25,4.9-6.14,7.93-10.88,9.67-11.23,4.13-23.52,3.89-35.49,3.6-.58-5,.91-10,2.46-14.82,1-3.2,2.14-6.48,4.33-9s5.77-4.19,9-3.16c-1.82-.05-3.24-1.82-3.46-3.63a9,9,0,0,1,1.36-5.21A26.55,26.55,0,0,1,42.7,86.5a8.08,8.08,0,0,1-.44-7.92,17,17,0,0,1,5.4-6.21,39.16,39.16,0,0,1,24.45-8c3.1.06,6.72.87,8,3.7-1.26-1.81-.77-4.41.61-6.13a12.89,12.89,0,0,1,5.5-3.54,50.65,50.65,0,0,1,28.56-2.56c4.7,1,10.23,4,9.68,8.75-.1-2.6,1.89-4.92,4.26-6a18.12,18.12,0,0,1,7.65-1.11c9.1.09,18.33,1.08,26.73,4.56,4.61,1.91,8.66-4,11,.42s25.25,20,26.73,24.69c1.94,6.12-15.19-.16-9.28,2.36"/><path class="cls-30" d="M339.66,123.66l9.61-18.08a89.8,89.8,0,0,0,4.47-9.26c1.16-3,2-6.27,1-9.29a14.38,14.38,0,0,0-1.9-3.57,56.21,56.21,0,0,0-4.33-5.6c-.7-.79-1.59-1.64-2.64-1.52a3.42,3.42,0,0,0-1.56.77l-5.49,4a24.8,24.8,0,0,1,4.4-6.63,41.93,41.93,0,0,0-9.78-13.66,106,106,0,0,0-9.91,7.06c1-1.8.54-4-.2-6a22.06,22.06,0,0,0-6.27-8.82,2.38,2.38,0,0,0-1.15-.64c-1-.14-1.71.84-2.2,1.69l-4.9,8.42a18.09,18.09,0,0,0-2.32,5.17c-.63,2.93.23,6,1.08,8.84-3.24.9-6.54,1.83-9.31,3.74s-4.94,5-4.83,8.37c.1,2.94,1.87,5.52,3.57,7.92l5.27,7.41c-1.82,1.34-3.74,2.82-4.42,5s0,4.22.68,6.21c2.46,6.83,6.53,13.4,12.78,17.11,4.34,2.58,9.63,3.74,13.14,7.38a6.66,6.66,0,0,0,2.29,1.9c2.2.8,4.23-1.46,5.5-3.43l10.64-16.55"/><path class="cls-31" d="M395.31,56.53c-.14-1.56-.71-3.06-.86-4.62s.1-3.1,0-4.64a4.58,4.58,0,0,0-2.21-3.84,51.56,51.56,0,0,0-16.8,8.46,7,7,0,0,0,.54,2.76,3.15,3.15,0,0,0-3-1.75,9.25,9.25,0,0,0-3.53,1c-3,1.29-6.09,2.63-8.49,4.87s-4,5.6-3.31,8.8a1.36,1.36,0,0,1,0,.83c-.24.55-1,.46-1.62.33a11.6,11.6,0,0,0-9.48,2.67,27.29,27.29,0,0,0-6.24,8,4,4,0,0,0-.76,2.6c.11.64.53,1.19.65,1.82a3.46,3.46,0,0,1-.38,2,24.3,24.3,0,0,1-4.3,5.77,13.94,13.94,0,0,0-3.6,6.16c-.48,2.36.42,5.16,2.61,6.16-2.66,3.43-6.34,6.17-8.06,10.15-1.8,4.18-1.09,9.1.85,13.21s5,7.58,8,11c3.53-2.75,7.76-4.55,11.07-7.57a39.47,39.47,0,0,0,5.38-6.55l13.47-19a6.93,6.93,0,0,1,1.37-1.58,7.37,7.37,0,0,1,2.14-1,58.51,58.51,0,0,0,7.71-3.28,16.4,16.4,0,0,0,6.3-4.9c1.52-2.22,2-5.36.45-7.57a47.32,47.32,0,0,0,10.1-6.07,3.56,3.56,0,0,0,1-1.11,3.37,3.37,0,0,0,.18-2,18.29,18.29,0,0,0-2.27-6.73c-.63-1.1-3.93-4.19-3.3-5.24.25-.42,2-.92,2.51-1.26a9.4,9.4,0,0,0,2.22-2.21A8.5,8.5,0,0,0,395.31,56.53Z"/><path class="cls-32" d="M328.19,143l9.52,5.32a8.56,8.56,0,0,0,3.5,1.33,7.93,7.93,0,0,0,3.27-.69,37.2,37.2,0,0,0,13.86-8.7,23.18,23.18,0,0,0,6.7-14.69c.1,2.17,2.46,3.67,4.63,3.63s4.15-1.18,6-2.28l12-7.11c2.49-1.47,5.37-4,4.27-6.66,1.06,2,3.6,2.85,5.86,2.6a17.16,17.16,0,0,0,6.28-2.49l14.2-8a12.21,12.21,0,0,0,3.74-2.78,4.16,4.16,0,0,0,.72-4.37c2.68,2.48,6.84,2.41,10.4,1.6,8.44-1.9,15.82-6.87,23-11.74-1.62-3.27-4.49-5.73-7.31-8a18.21,18.21,0,0,0-6.17-3.78c-2.33-.68-5.15-.28-6.69,1.6a2.88,2.88,0,0,0,.68-3.57,6.49,6.49,0,0,0-2.87-2.63,19.2,19.2,0,0,0-22.57,3.6,5.85,5.85,0,0,0-2.84-5,12.27,12.27,0,0,0-5.72-1.65,28.32,28.32,0,0,0-18,4.72c-1.86,1.26-3.74,3.17-3.39,5.38a3.83,3.83,0,0,0-2.78-3.49,9.32,9.32,0,0,0-4.73,0,36.64,36.64,0,0,0-18.36,9.65c-2.48,2.42-4.65,6.44-2.45,9.12A4.87,4.87,0,0,0,348,92,13.11,13.11,0,0,0,343,94.3c-5.49,3.62-10.71,7.85-14.45,13.26-2.05,3-3.67,6.46-3.38,10.06s2.34,6.66,3.27,10.08A16.41,16.41,0,0,1,326.19,141"/><path class="cls-33" d="M220.52,108.49a12.21,12.21,0,0,1,5-14.07c2-1.28,4.43-2.06,6-3.83,2.35-2.73,1.75-6.68,1.68-10.2-.09-4.74,1.29-9.9,5.28-12.75,1.82-1.3,4.15-2.11,5.34-4,1.8-2.77.34-6.84,2.58-9.29,1.29-1.41,3.4-1.79,5.31-2.27A29.59,29.59,0,0,0,269.88,38.6,16.33,16.33,0,0,1,273,34.08c1.42-1.21,3.71-1.75,5.22-.64s1.53,3.53,1.27,5.47l-2.57,19.51c-.61,4.62-1.51,9.75-5.41,12.55s-9.63,2.66-12.2,6.42c-1.49,2.18-1.37,5.08-2.79,7.3-2.32,3.63-7.54,4.08-11.58,5.88-5.85,2.6-9.46,8.3-14.75,11.81C228,103.85,225.52,105,224,107c-1.73,2.25-2,5.19-2.19,8"/><path class="cls-34" d="M216.11,114.81c-3.77-4-7.72-8.4-8.38-13.75-.35-2.81-5.69-6.67-6.7-9.33-1.37-3.6.72-4.75-2.67-6.8s-6.91-5-6.93-8.77c0-2.49,1.52-4.78,1.72-7.27.32-4-2.71-7.4-3.76-11.25-1.68-6.16,1.85-12.8.13-18.95-.6-2.12-1.8-4.1-2.06-6.28s.92-4.81,3.21-5.11c1.78-.24,3.43,1,4.33,2.52s1.3,3.19,2.11,4.71c2.57,4.85,8.59,7,12.61,10.82a16.7,16.7,0,0,1,5.14,11.46c.08,3-.61,6.11.8,8.75,2,3.75,7.31,4.73,10,8,2,2.37,2.3,5.61,2.14,8.62s-.75,6-.35,9c.36,2.73,1.55,5.41,1.25,8.15-.72,6.5-9.35,10.74-8.89,17.26"/><path class="cls-35" d="M235.84,110.63c.2-3.25,3.36-5.65,6.56-6.79s6.71-1.46,9.79-2.88c2-.93,3.78-2.3,5.83-3.12,3.63-1.46,7.74-1.08,11.63-1.61a24.12,24.12,0,0,0,17.88-12.28c3-5.67,3.42-12.46,7.3-17.6,2-2.67,5-4.92,5.65-8.14.66-3.06-.93-6.23-.36-9.3.37-2,1.63-3.78,2.55-5.63s1.5-4.1.49-5.92c-1.26-2.27-4.59-2.87-7.11-1.94s-4.37,3-6,5c-3,3.71-5.77,7.79-10.06,10-3.41,1.79-7.55,2.29-10.57,4.62-5.51,4.26-5.24,12.92-10.68,17.27-3.44,2.74-8.69,3.32-11.19,6.86s-1.06,8.37-2,12.58c-1.15,5.35-11.8,4.78-15.91,8.6s-2.18,13.31-1,18.65"/><path class="cls-36" d="M210,110.29a44,44,0,0,0-16-18.58c-7.5-4.92-16.87-8-21.85-15.24-3.18-4.65-4-10.35-4.84-15.85l-2.87-20a4.56,4.56,0,0,1,.35-3.26,3.18,3.18,0,0,1,3.52-1,5.21,5.21,0,0,1,2.83,2.5c2.44,4.33.6,10.5,4.34,13.89,1.5,1.36,3.64,2,5,3.4s1.94,3.94,3.47,5.54,3.68,2.08,5.66,2.91A18.63,18.63,0,0,1,201,80.32c.14,2.62-.3,5.36.74,7.79,2.06,4.83,8.91,6.33,11.42,11,2.73,5-.69,11.87,2.65,16.57"/><path class="cls-37" d="M249.91,0c2.72,1.15,4,4.17,4.3,7s-.08,5.69.56,8.45c1.22,5.32,6,9.35,7.54,14.58,2.75,9.19-5,18.39-4.79,27.94.07,4,1.52,7.86,1.74,11.85.48,8.52-4.77,16.56-11.59,22.1-4.31,3.51-9.44,6.43-12.15,11.17-1,1.67-1.69,3.63-3.43,4.55-2.55,1.35-.52,6.36-2.68,8.22-1.31,1.13-4.31-.81-4.76.82s-4.63.71-6.36.39"/><path class="cls-38" d="M218.53,111c1.37-6.88,1.35-14.54-2.93-20.23-1.63-2.17-3.8-3.93-5.6-6a23.48,23.48,0,0,1-4.95-21.93c2.17-7.31,7.87-13.28,10.2-20.55,1.18-3.69,1.49-7.7,3.51-11.05,2.4-4,6.85-6.41,10.07-9.83,4.62-4.91,6.53-11.62,10.59-17"/><path class="cls-39" d="M293.64,102.79a24,24,0,0,1-12.17-22.27,2.59,2.59,0,0,1,3.26-2.91,24.82,24.82,0,0,1,16.72,8.07c3,3.35,5,7.45,7,11.49l3.71,7.53a2.21,2.21,0,0,1,.32,1.69c-.27.72-1.16.94-1.92,1a43,43,0,0,1-8.64.21"/><path class="cls-40" d="M320,103.25A33.68,33.68,0,0,1,302,84.68c-1.48-3.82-2.39-8.13-5.42-10.89-2.65-2.41-6.37-3.13-9.7-4.44a31.81,31.81,0,0,1-13.29-10.43,52.2,52.2,0,0,1-7.72-15.17c-.95-2.82-1.71-6-.43-8.68a8.62,8.62,0,0,1,5.2-4.17c6.5-2.17,13.88,1.17,18.19,6.49s6.1,12.24,7.17,19,1.52,13.69,3.67,20.2a41.29,41.29,0,0,0,26.3,26"/><path class="cls-41" d="M330.58,103.67c-3.76-6.31-7.84-12.93-14.35-16.32-3.19-1.66-6.78-2.43-10-4.06C300.6,80.42,296.5,75,294.43,69A40.79,40.79,0,0,1,293,50.29a7.47,7.47,0,0,1,1.51-4.16c1.36-1.49,3.64-1.71,5.64-1.42,5.14.74,9.62,4.22,12.38,8.62a31.09,31.09,0,0,1,4.21,14.82c.24,4.35-.09,8.77.92,13,1.24,5.16,4.44,9.69,8.29,13.34a83.06,83.06,0,0,0,12.84,9.38"/><path class="cls-42" d="M339.66,103.25c-5.81-5.36-7.17-13.9-7.91-21.76s-1.42-16.31-6.4-22.45c-2.88-3.54-6.91-5.91-10.22-9A30.35,30.35,0,0,1,306,24.83a9.88,9.88,0,0,1,1.83-5.21c2.1-2.56,6-2.88,9.14-1.77,6.22,2.2,9.86,8.68,11.75,15C331,40.7,331.54,49,331.9,57.15s.61,16.43,2.48,24.41,5.51,15.77,11.66,21.19"/><path class="cls-43" d="M349.47,104.36c3.39-5.49,3.74-12.28,3.63-18.74s-.56-13.08,1.51-19.19c1.23-3.64,3.31-6.94,4.71-10.52,4.17-10.69,1.92-22.68-.38-33.92-.59-2.88-1.55-6.22-4.31-7.24a5.77,5.77,0,0,0-5.1.86,14.42,14.42,0,0,0-3.61,3.94c-4.34,6.3-7.53,13.54-8.23,21.15s1.24,15.63,6.15,21.49c2.1,2.51,4.74,4.65,6.18,7.59,1.76,3.58,1.49,7.8.94,11.75a99,99,0,0,1-7.61,26.54"/><path class="cls-44" d="M351.69,104.59c-.41-4.69,1.66-9.24,4.08-13.28s5.28-7.9,6.74-12.38c2.91-8.92-.13-18.84,2.18-27.93a24.79,24.79,0,0,1,17.63-17.56c2.42-.61,5.19-.77,7.22.68,2.22,1.59,2.87,4.67,2.51,7.38-.86,6.57-6.19,11.48-10.62,16.42-7.83,8.75-13.55,19.15-20.45,28.65A48,48,0,0,0,356,94.18a13.12,13.12,0,0,0-1.17,8.84"/><path class="cls-45" d="M362.63,102.47A241.22,241.22,0,0,1,405.6,40c6.76-7.07,14.74-14.08,24.48-15a6.83,6.83,0,0,1,5,1,5.19,5.19,0,0,1,1.6,4.84,11.78,11.78,0,0,1-2.22,4.8,33.81,33.81,0,0,1-7.76,7.91c-7.83,5.71-17.73,7.8-26.12,12.66-8.61,5-15.34,12.78-20.43,21.32s-8.68,17.9-12.14,27.23l-.8.54"/><path class="cls-46" d="M371.35,104l6.52-7.84a44,44,0,0,0,6.21-8.87c1.69-3.52,2.4-7.42,3.51-11.16s2.73-7.52,5.72-10a16.34,16.34,0,0,1,8.25-3.36,48.77,48.77,0,0,1,9-.14c1.63.07,3.43.23,4.55,1.42a4.32,4.32,0,0,1,.65,4.31,12.73,12.73,0,0,1-2.47,3.83c-5.54,6.67-11.22,13.46-18.62,18-4.06,2.48-8.55,4.21-12.54,6.81s-7.59,6.32-8.48,11"/><path class="cls-47" d="M391.44,104,402,90.33a151.31,151.31,0,0,0,10.65-15.06c5.18-8.75,8.61-18.58,14.92-26.55,1.37-1.73,3.39-3.53,5.51-2.92s2.84,3,3.13,5.1A33.4,33.4,0,0,1,419.7,84.47c-3.65,2.1-7.67,3.48-11.41,5.41s-7.34,4.55-9.26,8.3c-1.12,2.2-1.62,4.66-2.65,6.9s-2.87,4.36-5.31,4.69"/><path class="cls-48" d="M403.85,104.63l14.33-10.53c3.35-2.46,6.75-5,9.35-8.21,1.83-2.28,3.27-4.91,5.53-6.77,3.71-3.06,8.89-3.44,13.69-3.69,1.66-.09,3.56-.08,4.67,1.16a3.73,3.73,0,0,1,.77,3,9.82,9.82,0,0,1-1.11,3c-2.8,5.48-6.79,10.76-12.51,13C433,97.83,426.78,96.86,420.94,98c-6.67,1.32-12.45,5.32-18,9.23"/><path class="cls-49" d="M340.56,104.84c-3.66-1.77-6.19-5.38-7.49-9.24a40.21,40.21,0,0,1-1.59-12.06c-.1-4.9,0-9.93,1.73-14.51a8.84,8.84,0,0,1,1.66-2.93,4.11,4.11,0,0,1,3-1.42,5.57,5.57,0,0,1,3.38,1.59,25.08,25.08,0,0,1,7.68,12.86A48.28,48.28,0,0,1,350,94.24a29.05,29.05,0,0,1-1.88,9.72,12.44,12.44,0,0,1-6.72,7"/><path class="cls-50" d="M421.22,92.56a14.08,14.08,0,0,1-7.14-13.07A1.52,1.52,0,0,1,416,77.79a14.56,14.56,0,0,1,9.81,4.73,28.85,28.85,0,0,1,4.13,6.74l2.17,4.42a1.29,1.29,0,0,1,.19,1c-.16.42-.68.55-1.13.61a25.22,25.22,0,0,1-5.07.13"/><path class="cls-51" d="M436.66,92.83a19.76,19.76,0,0,1-10.52-10.89c-.87-2.24-1.4-4.77-3.18-6.39-1.55-1.42-3.74-1.83-5.69-2.61a18.66,18.66,0,0,1-7.8-6.12,30.63,30.63,0,0,1-4.53-8.9c-.56-1.65-1-3.52-.26-5.09a5.06,5.06,0,0,1,3-2.45c3.81-1.27,8.14.68,10.67,3.81s3.58,7.18,4.2,11.15.89,8,2.15,11.85A24.22,24.22,0,0,0,440.2,92.45"/><path class="cls-52" d="M442.89,93.07c-2.2-3.7-4.6-7.59-8.42-9.58-1.87-1-4-1.43-5.86-2.38a14.66,14.66,0,0,1-6.92-8.36,23.93,23.93,0,0,1-.82-11,4.38,4.38,0,0,1,.89-2.44,3.73,3.73,0,0,1,3.31-.84,10.67,10.67,0,0,1,7.26,5.05,18.24,18.24,0,0,1,2.47,8.69c.14,2.55-.05,5.14.54,7.63a16.34,16.34,0,0,0,4.87,7.83,48.73,48.73,0,0,0,7.54,5.5"/><path class="cls-53" d="M448.22,92.83c-3.41-3.15-4.21-8.15-4.64-12.77s-.83-9.57-3.76-13.17c-1.69-2.07-4.05-3.47-6-5.31a17.81,17.81,0,0,1-5.37-14.77,5.8,5.8,0,0,1,1.07-3.06c1.23-1.5,3.53-1.69,5.36-1,3.65,1.29,5.79,5.09,6.89,8.8,1.38,4.6,1.67,9.45,1.89,14.26s.36,9.64,1.46,14.32,3.23,9.25,6.84,12.43"/><path class="cls-54" d="M454,93.48c2-3.22,2.2-7.21,2.13-11s-.33-7.67.88-11.26c.72-2.14,1.94-4.07,2.76-6.17,2.45-6.27,1.13-13.31-.22-19.9-.35-1.69-.91-3.65-2.53-4.25a3.38,3.38,0,0,0-3,.51,8.46,8.46,0,0,0-2.12,2.31,26.51,26.51,0,0,0-4.83,12.41,17.26,17.26,0,0,0,3.61,12.61c1.23,1.47,2.78,2.73,3.63,4.45,1,2.1.87,4.58.55,6.9a58.09,58.09,0,0,1-4.46,15.57"/><path class="cls-55" d="M455.27,93.62c-.24-2.75,1-5.42,2.39-7.79s3.1-4.64,4-7.26c1.71-5.23-.08-11.05,1.28-16.39a14.54,14.54,0,0,1,10.34-10.3,5.15,5.15,0,0,1,4.24.4A4.55,4.55,0,0,1,479,56.6c-.5,3.86-3.63,6.74-6.23,9.63-4.59,5.13-7.95,11.24-12,16.81a28.16,28.16,0,0,0-2.9,4.47,7.7,7.7,0,0,0-.68,5.18"/><path class="cls-56" d="M461.7,92.37a141.53,141.53,0,0,1,25.21-36.65c4-4.15,8.65-8.26,14.36-8.8a4,4,0,0,1,2.91.59,3,3,0,0,1,.94,2.84,6.91,6.91,0,0,1-1.3,2.82,19.84,19.84,0,0,1-4.56,4.64c-4.6,3.35-10.4,4.57-15.32,7.43a34.69,34.69,0,0,0-12,12.51,96.57,96.57,0,0,0-7.12,16l-.47.32"/><path class="cls-57" d="M466.81,93.29l3.83-4.6a25.84,25.84,0,0,0,3.65-5.2,43.23,43.23,0,0,0,2.06-6.55,11.78,11.78,0,0,1,3.36-5.88,9.59,9.59,0,0,1,4.84-2,28.61,28.61,0,0,1,5.29-.08,3.78,3.78,0,0,1,2.67.83,2.54,2.54,0,0,1,.38,2.53,7.47,7.47,0,0,1-1.45,2.25c-3.25,3.91-6.58,7.9-10.93,10.55-2.38,1.46-5,2.47-7.36,4s-4.45,3.71-5,6.45"/><path class="cls-58" d="M478.6,93.26l6.17-8A88.77,88.77,0,0,0,491,76.41c3-5.13,5.05-10.9,8.76-15.58.81-1,2-2.07,3.23-1.71s1.66,1.76,1.83,3a19.6,19.6,0,0,1-9.66,19.69c-2.14,1.23-4.5,2-6.7,3.17a12,12,0,0,0-5.43,4.87c-.66,1.29-.95,2.74-1.56,4a4.42,4.42,0,0,1-3.12,2.75"/><path class="cls-59" d="M485.88,93.64l8.41-6.18a28.22,28.22,0,0,0,5.49-4.81,25.25,25.25,0,0,1,3.24-4c2.18-1.8,5.21-2,8-2.17a3.36,3.36,0,0,1,2.74.68,2.19,2.19,0,0,1,.45,1.77,5.76,5.76,0,0,1-.65,1.76c-1.64,3.21-4,6.31-7.34,7.64s-6.91.71-10.34,1.39c-3.91.77-7.3,3.12-10.57,5.42"/><path class="cls-60" d="M448.75,93.76a9.12,9.12,0,0,1-4.39-5.42,23.59,23.59,0,0,1-.93-7.08,22.77,22.77,0,0,1,1-8.52,5.19,5.19,0,0,1,1-1.72,2.41,2.41,0,0,1,1.74-.83,3.27,3.27,0,0,1,2,.93,14.72,14.72,0,0,1,4.51,7.55,28.33,28.33,0,0,1,.67,8.87,17,17,0,0,1-1.1,5.7,7.3,7.3,0,0,1-3.94,4.09"/><path class="cls-61" d="M490.07,84.3a70,70,0,0,1,7.8,11.46,15.29,15.29,0,0,1,11.8-6.41,7.59,7.59,0,0,1,3.59.61,10.12,10.12,0,0,1,2.83,2.37l8.37,9a1.87,1.87,0,0,1,.41.57c.27.7-.41,1.46-1.15,1.58a4.65,4.65,0,0,1-2.18-.39c-3.73-1.21-7.75-.84-11.66-1.1s-8.14-1.4-10.36-4.63a18.84,18.84,0,0,0,2.15,8.05,4.87,4.87,0,0,0,1.43,1.82,16.65,16.65,0,0,0,2.24,1c2.68,1.31,3.17,4.9,3.05,7.88s-.35,6.39,1.75,8.51c.93-2.07-.39-4.48,0-6.72.46-2.74,3.34-4.45,6.08-4.88a13.17,13.17,0,0,1,4.91.15c5,1.11,8.8,4.93,12.34,8.57l4.57,4.71a.7.7,0,0,1-.5,1.18,34,34,0,0,0-9.86,1.76c-3,1-6.26,2.48-9.27,1.42-2.37-.83-3.93-3-5.67-4.82a1.11,1.11,0,0,0-.67-.41c-.42,0-.72.4-.88.8a5.7,5.7,0,0,0-.09,4,6.42,6.42,0,0,1,3.55.56c1,.63,1.64,2.16.86,3.1s-2.56.84-3.13,2a2.7,2.7,0,0,0-.22,1l-.76,10,3.11-.34a3.73,3.73,0,0,1,1.74-4.14,9.27,9.27,0,0,1,4.65-1.14,4.28,4.28,0,0,1,2,.25c1.2.56,1.65,2,2.39,3.1,2.32,3.45,8.06,4.13,9,8.17l-16.19,2.58a4,4,0,0,1-1.83,0,3.26,3.26,0,0,1-1.89-2.79,18.82,18.82,0,0,0-.47-3.52,5.59,5.59,0,0,0-3.2-.4c.53,3-.92,5.92-2.18,8.68s-2.39,5.94-1.24,8.75c-1.61.63-3.37-1-3.57-2.74s.61-3.37,1.32-5A51.41,51.41,0,0,0,509.64,138a1,1,0,0,0-.19-.72,1,1,0,0,0-.83-.12,58.85,58.85,0,0,1-13.33.51.82.82,0,0,1-.31-1.55c4.63-2.36,4.47-2.72,5.64-4.28,2.72-3.66,2.88-2.68,7.43-2.41l-2.13-10.39-11.14,9.21a.65.65,0,0,1-1-.34A81.43,81.43,0,0,1,491.54,115a7.32,7.32,0,0,1,6-7.83l1.27-.23c.19,0,.42-.09.5-.27a.61.61,0,0,0,0-.39,48.58,48.58,0,0,0-7.14-15.66A20.21,20.21,0,0,1,481.8,90,2.48,2.48,0,0,1,480.28,87a16.59,16.59,0,0,0-.21-9.55,11.81,11.81,0,0,1-.72-2.87,1.4,1.4,0,0,1,2-1.31c3.77,1.76,14.59,10.3,6.17,10.07"/><path class="cls-62" d="M451.26,92l2.91,8.87a15,15,0,0,0-7.05-1.64c-2.49,0-5,.71-7.44.6a12,12,0,0,1-7.47-3.09,2.92,2.92,0,0,0-.89,3.43,5.76,5.76,0,0,0,2.59,2.73c5.33,3.14,12.06,1.6,18,0a4.86,4.86,0,0,1,3.28-.1,5.27,5.27,0,0,1,2.12,2.71,31.29,31.29,0,0,0,7.53,9.78l-5.91-.43a2.2,2.2,0,0,1-1.33-.4c-.51-.45-.49-1.24-.63-1.91-.57-2.66-3.9-3.54-6.62-3.63s-5.48.13-7.58,1.74c-3.16,2.42-3.5,6.94-4.91,10.67A17.81,17.81,0,0,1,426,132.08c-.52.18-.82,1.06.38,1.58,7.11,2.72,15,2.77,22.54,1.74,3.67-.5,7.4-1.28,10.56-3.22s5.69-5.23,5.86-8.94c.12-2.56-1.26-5.42-3.76-6,2-.9,4.36.07,5.88,1.62s2.41,3.58,3.52,5.44a24.79,24.79,0,0,0,6.66,7.27c-2.43.28-5,.67-6.82,2.35-2.73,2.59-2.33,7-1.72,10.67l2.28,13.91c.2,1.23.51,2.62,1.6,3.23a3.1,3.1,0,0,0,3.51-.81,26.73,26.73,0,0,0,2.28-3.12c2-2.66,5.32-4,8.08-5.86s5.26-5.1,4.34-8.32a23.93,23.93,0,0,0,9.51,4c-.81,2.87-.4,0-3,1.47-1.3.75-3.24,6.39-4.36,7.4s-4.61,1.7-3.82,3a9.52,9.52,0,0,0,6.74,1.17c1.88-.53,3.47-.75,5.38-1.15,2.42-.51,5.05-.2,7.29-1.26s3.56-4.52,1.54-6q7.57,4.61,15.47,8.65c2.05,1.05,4.36,2.1,6.59,1.48-.67-2.52-3.31-3.91-5.67-5q-16.59-7.76-32.51-16.85a9,9,0,0,1-3.1-2.45c-.56-.8-.85-1.76-1.39-2.57a5,5,0,0,0-4.89-2.1,3,3,0,0,1-1.58.08,2.52,2.52,0,0,1-1.14-1.39,14.21,14.21,0,0,0-4-4.86c4-4.93,8.33-10.93,6.74-17.11-3.17-.18-6,2.24-7.36,5.13s-1.38,6.18-1.31,9.36a11,11,0,0,1-3.58-7.12c-.26-2.83.6-5.62,1.44-8.33,1.91,2.11,5.66,1.47,7.52-.68s2.21-5.24,2-8.08a25.45,25.45,0,0,0-10.54-18.35,7.89,7.89,0,0,0-3.57-1.61A3.37,3.37,0,0,0,466.19,82c-.6,1.14-.26,2.52-.14,3.8.31,3.3-.93,6.52-2,9.66s-2,6.55-1.06,9.73,4.47,5.8,7.56,4.59a10.8,10.8,0,0,1,.19,7A44.83,44.83,0,0,1,455.4,92.45,12,12,0,0,0,454,88.52a3.46,3.46,0,0,0-3.55-1.68"/></g></svg>