<?xml version="1.0" standalone="no"?>
<!DOCTYPE svg PUBLIC "-//W3C//DTD SVG 20010904//EN"
 "http://www.w3.org/TR/2001/REC-SVG-20010904/DTD/svg10.dtd">
<svg version="1.0" xmlns="http://www.w3.org/2000/svg"
 width="512.000000pt" height="512.000000pt" viewBox="0 0 512.000000 512.000000"
 preserveAspectRatio="xMidYMid meet">
<metadata>
Created by potrace 1.11, written by Peter Selinger 2001-2013
</metadata>
<g transform="translate(0.000000,512.000000) scale(0.100000,-0.100000)"
fill="#000000" stroke="none">
<path d="M2285 5109 c-310 -28 -621 -117 -899 -256 -238 -119 -423 -252 -628
-451 -146 -142 -139 -140 -153 -59 -4 23 -11 37 -18 35 -7 -3 -28 -37 -48 -76
l-37 -72 -7 37 c-4 21 -22 87 -42 147 l-35 108 -18 -30 c-63 -104 -90 -185
-90 -274 0 -32 -3 -58 -6 -58 -4 0 -33 24 -65 54 -70 65 -179 150 -184 144 -8
-7 23 -191 39 -237 15 -40 15 -43 -2 -36 -48 19 -73 27 -78 22 -14 -14 23
-105 59 -144 l40 -43 -48 0 -47 0 20 -32 c27 -43 111 -94 181 -109 31 -7 57
-13 58 -14 2 -1 -20 -53 -48 -116 -104 -231 -175 -488 -204 -735 -17 -148 -20
-522 -5 -659 12 -108 45 -289 66 -363 l15 -53 31 26 c17 14 43 29 58 32 27 5
28 6 12 33 -15 25 -14 31 3 76 21 56 98 142 159 178 61 36 141 56 220 56 l71
0 0 58 c0 73 22 106 118 173 122 85 317 130 417 95 24 -8 46 -13 48 -11 2 2 7
33 9 68 l6 65 -69 -5 c-61 -4 -73 -2 -104 19 -19 13 -44 39 -55 57 -11 18 -41
60 -68 93 -31 41 -47 71 -47 90 0 25 7 32 53 52 106 47 284 79 311 57 11 -10
16 -8 21 8 8 25 54 46 153 70 119 28 210 9 260 -54 25 -31 29 -31 53 -1 33 42
97 66 176 66 111 0 233 -45 233 -86 0 -7 5 -16 12 -20 8 -5 9 -2 4 12 -4 10
-14 105 -21 209 -15 217 -33 287 -94 382 -45 70 -113 126 -183 151 -55 19 -53
10 -37 162 11 102 11 107 -15 179 -31 90 -33 120 -5 155 23 29 63 35 94 12 16
-12 19 -29 20 -147 1 -109 6 -145 23 -192 54 -147 118 -229 275 -356 50 -39
93 -85 118 -124 61 -94 99 -243 99 -389 l0 -67 37 -10 c20 -6 38 -9 40 -7 2 2
-1 15 -7 30 -16 43 -12 122 11 189 22 67 35 87 53 87 7 0 53 -32 104 -71 51
-38 92 -65 92 -58 0 52 -147 219 -193 219 -33 0 -76 -36 -95 -79 -9 -20 -17
-29 -18 -21 -2 8 -8 113 -14 234 -12 258 -29 390 -65 506 -50 161 -51 158 114
320 106 104 123 126 182 234 73 135 115 188 170 216 114 59 198 -19 199 -182
0 -87 19 -149 67 -219 73 -106 88 -148 87 -239 -1 -68 -8 -103 -32 -172 -17
-49 -27 -88 -23 -88 22 0 131 104 167 160 74 112 96 134 139 134 52 0 67 -23
63 -98 l-3 -59 -68 -22 c-155 -52 -264 -161 -318 -317 -20 -55 -23 -92 -29
-303 -8 -254 -16 -301 -71 -393 -16 -28 -17 -37 -7 -43 7 -5 16 -9 20 -9 4 0
58 75 120 168 153 230 228 330 330 444 162 182 206 274 178 377 -11 42 -11 42
40 106 63 79 108 108 167 108 34 0 50 -5 71 -26 35 -35 33 -76 -7 -155 -17
-34 -31 -75 -31 -91 0 -23 -21 -54 -97 -140 -187 -215 -368 -464 -520 -716
-93 -154 -95 -159 -97 -246 l-1 -78 -102 -98 c-116 -112 -153 -174 -153 -259
0 -68 33 -131 83 -157 20 -10 37 -25 37 -33 0 -41 -75 -163 -91 -147 -14 15
-57 168 -70 248 -7 44 -13 141 -12 215 1 133 2 144 57 389 7 30 10 66 8 82 -5
35 -39 72 -59 64 -14 -5 -15 11 -10 132 6 154 19 207 78 324 107 215 120 387
54 726 -25 128 -44 177 -79 205 -26 22 -78 23 -117 3 -68 -35 -191 -250 -229
-399 -14 -54 -20 -112 -20 -180 0 -175 37 -273 156 -412 102 -119 117 -150
119 -249 1 -44 8 -105 14 -136 10 -49 10 -62 -7 -105 -11 -27 -29 -102 -42
-167 l-23 -117 -58 55 c-36 34 -84 67 -126 86 -150 68 -173 81 -212 119 -22
22 -52 62 -66 90 -17 33 -30 48 -38 44 -59 -34 -69 -83 -33 -159 54 -109 173
-185 385 -247 158 -46 161 -49 161 -197 0 -102 9 -172 35 -275 8 -28 7 -28
-69 23 -43 29 -80 59 -82 66 -3 8 -1 30 6 50 24 72 -35 151 -162 217 -52 27
-74 32 -128 32 -83 0 -105 -12 -225 -122 -163 -148 -267 -190 -441 -178 -92 6
-94 6 -94 -15 0 -29 113 -139 213 -207 100 -69 267 -152 387 -193 73 -25 117
-33 191 -37 165 -7 267 39 322 147 30 61 34 96 13 146 -20 46 -4 45 44 -3 48
-47 58 -86 61 -232 2 -63 9 -135 16 -159 7 -24 11 -46 10 -48 -2 -2 -20 19
-39 47 -29 42 -37 48 -47 36 -10 -12 -4 -22 33 -56 44 -40 93 -107 85 -115 -3
-2 -29 5 -59 15 -53 18 -55 20 -67 65 -7 26 -14 49 -16 51 -2 3 -35 -3 -73
-12 -104 -26 -290 -24 -376 4 -92 29 -136 53 -194 106 l-51 45 -16 -37 c-9
-21 -30 -45 -47 -55 -38 -23 -158 -36 -360 -38 -128 -2 -160 0 -187 14 -17 9
-33 22 -36 29 -4 8 -6 7 -6 -4 -1 -26 -51 -79 -89 -95 -36 -15 -359 -42 -504
-43 -72 0 -80 2 -110 29 l-32 28 -26 -36 c-52 -71 -211 -131 -387 -147 -40 -4
-73 -9 -73 -12 0 -17 123 -234 185 -327 395 -591 999 -977 1710 -1091 137 -21
556 -30 711 -14 276 27 549 100 810 216 6 3 37 -33 68 -80 102 -153 188 -186
145 -55 -7 19 -34 68 -62 109 -38 58 -46 76 -36 82 200 115 314 192 436 296
50 41 63 48 63 34 0 -44 -56 -236 -101 -349 -57 -141 -62 -191 -24 -228 13
-14 34 -25 47 -25 22 0 23 3 24 83 0 76 4 90 49 192 37 83 50 126 53 173 4 61
5 62 34 62 51 0 65 -14 72 -74 16 -139 15 -139 322 -90 162 25 248 43 251 51
10 25 -29 64 -130 131 -64 42 -109 80 -122 101 -11 19 -32 47 -47 62 -23 25
-34 29 -80 29 -113 0 -188 -45 -188 -113 0 -36 -15 -47 -69 -47 -23 0 -24 1
-17 67 7 66 8 67 81 145 41 44 104 116 140 161 l65 81 117 38 c135 43 245 68
302 68 47 0 71 8 71 23 0 7 -57 69 -127 139 l-127 127 23 53 c120 277 189 553
211 848 10 135 13 270 6 270 -2 0 -38 -23 -81 -51 -201 -133 -408 -195 -494
-149 -10 5 -20 -4 -35 -34 -26 -51 -128 -115 -174 -108 -79 11 -236 -46 -312
-114 -35 -32 -44 -36 -60 -26 -13 8 -20 8 -22 0 -2 -6 -21 18 -42 53 -69 117
-158 228 -194 241 l-33 12 33 12 c23 7 34 18 36 35 2 13 14 36 27 51 13 15 33
54 44 85 59 162 103 207 287 295 l126 60 27 -19 c14 -11 31 -35 37 -53 7 -21
14 -29 18 -21 10 16 87 64 93 58 7 -8 -94 -88 -276 -222 -150 -110 -202 -157
-188 -171 2 -3 38 17 78 44 157 105 226 129 429 147 183 17 212 24 282 72 107
72 181 55 318 -74 l80 -75 -6 88 c-24 365 -106 674 -260 983 -144 288 -262
452 -494 680 -375 370 -858 606 -1402 687 -125 18 -523 26 -663 13z m-797
-991 c20 -22 42 -68 42 -89 0 -5 -17 2 -37 15 -21 13 -55 30 -75 37 -21 7 -38
18 -38 24 0 39 75 48 108 13z m2281 -664 c-14 -36 -39 -77 -65 -104 -51 -53
-83 -122 -119 -255 -25 -92 -52 -163 -73 -193 -7 -11 -17 -8 -48 13 -43 29
-82 28 -117 -3 -30 -26 82 190 154 298 58 88 273 320 284 308 3 -3 -4 -32 -16
-64z m166 -4 c4 -6 -6 -10 -22 -9 -25 0 -26 1 -8 9 11 5 21 9 22 9 1 1 5 -3 8
-9z m-2210 -216 c43 -28 19 -28 -30 0 -25 15 -45 29 -45 31 0 7 47 -13 75 -31z
m2214 -261 c17 4 31 5 31 3 0 -3 -63 -86 -141 -187 -78 -100 -143 -188 -146
-196 -9 -22 -92 57 -103 97 -25 96 -32 83 77 139 54 28 130 75 168 104 39 29
73 49 76 44 4 -6 21 -7 38 -4z m-106 -828 c26 -43 47 -82 47 -86 0 -12 -287
-180 -334 -196 -43 -15 -99 -4 -114 24 -7 11 -12 3 -21 -32 -15 -58 -51 -132
-86 -173 l-26 -31 -34 38 c-19 21 -35 41 -35 44 0 4 13 13 29 22 68 35 171
161 171 209 0 21 -74 39 -128 32 -93 -13 -175 -78 -245 -193 -18 -29 -35 -53
-38 -53 -14 0 -20 93 -9 145 13 61 68 151 127 208 l39 37 23 -31 c43 -58 130
-75 200 -40 41 21 101 83 124 128 l15 28 123 -1 124 -1 48 -78z m-750 -557
c20 -28 35 -53 33 -55 -2 -2 -17 4 -33 13 -20 12 -33 30 -40 56 -6 21 -7 38
-3 38 4 0 23 -23 43 -52z m63 -55 c-4 -4 -11 -1 -16 7 -16 25 -11 35 7 17 9
-9 13 -20 9 -24z"/>
<path d="M3215 3000 l-40 -7 53 -2 c29 0 52 3 52 9 0 11 -5 11 -65 0z"/>
<path d="M3120 2975 c-33 -19 -21 -19 21 0 19 8 27 14 19 14 -8 0 -26 -6 -40
-14z"/>
</g>
</svg>
